<svg width="40" height="40" viewBox="0 0 40 40" fill="none" xmlns="http://www.w3.org/2000/svg">
<path d="M20 40C31.0457 40 40 31.0457 40 20C40 8.9543 31.0457 0 20 0C8.9543 0 0 8.9543 0 20C0 31.0457 8.9543 40 20 40Z" fill="url(#paint0_linear)"/>
<path d="M29.5589 7.5H22.9872V18.3333C22.9872 18.6667 22.8438 18.9667 22.6168 19.0999C22.5451 19.15 22.4614 19.1667 22.3898 19.1667C22.2345 19.1667 22.0791 19.0833 21.9716 18.9167L20 16.1832L18.0285 18.9166C17.8613 19.1666 17.6103 19.2332 17.3833 19.0999C17.1563 18.9667 17.0129 18.6667 17.0129 18.3333V7.5H10.4412C10.1065 7.5 9.84375 7.86667 9.84375 8.33333V31.6667C9.84375 32.1332 10.1066 32.5 10.4412 32.5H29.5588C29.8935 32.5 30.1562 32.1332 30.1562 31.6667V8.33333C30.1563 7.86667 29.8935 7.5 29.5589 7.5ZM27.1692 29.1667H23.5846C23.2544 29.1667 22.9871 28.794 22.9871 28.3333C22.9871 27.8727 23.2544 27.5 23.5846 27.5H27.1692C27.4993 27.5 27.7666 27.8727 27.7666 28.3333C27.7666 28.794 27.4994 29.1667 27.1692 29.1667ZM27.1692 25.8333H23.5846C23.2544 25.8333 22.9871 25.4606 22.9871 25C22.9871 24.5394 23.2544 24.1667 23.5846 24.1667H27.1692C27.4993 24.1667 27.7666 24.5394 27.7666 25C27.7666 25.4606 27.4994 25.8333 27.1692 25.8333Z" fill="url(#paint1_linear)"/>
<defs>
<linearGradient id="paint0_linear" x1="20" y1="-0.000132451" x2="20" y2="40" gradientUnits="userSpaceOnUse">
<stop stop-color="#00E8A2"/>
<stop offset="1" stop-color="#7BFCDD"/>
</linearGradient>
<linearGradient id="paint1_linear" x1="20" y1="32.5" x2="20" y2="7.5" gradientUnits="userSpaceOnUse">
<stop stop-color="#C9FFF3"/>
<stop offset="0.9973" stop-color="#F8FFFD"/>
</linearGradient>
</defs>
</svg>
