<svg width="40" height="40" viewBox="0 0 40 40" fill="none" xmlns="http://www.w3.org/2000/svg">
<path d="M20 40C31.0457 40 40 31.0457 40 20C40 8.9543 31.0457 0 20 0C8.9543 0 0 8.9543 0 20C0 31.0457 8.9543 40 20 40Z" fill="url(#paint0_linear)"/>
<path d="M22.217 12.6319C22.5632 12.1688 22.7758 11.6005 22.7758 10.9789C22.7757 9.44797 21.5308 8.20312 20 8.20312C18.4691 8.20312 17.2243 9.44797 17.2243 10.9788C17.2243 11.6004 17.4368 12.1687 17.783 12.6318C13.4926 13.6387 10.285 17.4885 10.285 22.0817C10.2849 27.4387 14.643 31.7969 20 31.7969C25.3569 31.7969 29.7151 27.4388 29.7151 22.0818C29.7151 17.4886 26.5075 13.6388 22.217 12.6319ZM20 9.59102C20.7651 9.59102 21.3879 10.2138 21.3879 10.9789C21.3879 11.744 20.7651 12.3668 20 12.3668C19.2349 12.3668 18.6121 11.744 18.6121 10.9789C18.6121 10.2137 19.2349 9.59102 20 9.59102ZM20 29.0212C16.1885 29.0212 13.0606 25.9124 13.0606 22.0818C13.0606 18.2673 16.1719 15.1424 20 15.1424C23.8268 15.1424 26.9394 18.2655 26.9394 22.0818C26.9394 25.8933 23.8306 29.0212 20 29.0212ZM24.8575 21.3879H25.4813C25.3536 20.3795 24.9627 19.4617 24.3676 18.6961L23.9257 19.138C23.6546 19.4091 23.2155 19.4091 22.9444 19.138C22.6734 18.867 22.6733 18.4278 22.9444 18.1568L23.3864 17.7148C22.6206 17.1195 21.7026 16.7283 20.6939 16.6005V17.2243C20.6939 17.6079 20.3835 17.9182 20 17.9182C19.6165 17.9182 19.3061 17.6078 19.3061 17.2243V16.6005C18.2973 16.7282 17.3794 17.1195 16.6136 17.7148L17.0555 18.1568C17.3266 18.4279 17.3266 18.867 17.0555 19.138C16.7844 19.4091 16.3453 19.4091 16.0743 19.138L15.6323 18.6961C15.0373 19.4617 14.6464 20.3795 14.5187 21.3879H15.1425C15.5261 21.3879 15.8364 21.6983 15.8364 22.0818C15.8364 22.4654 15.526 22.7757 15.1425 22.7757H14.5187C14.6464 23.7842 15.0374 24.7022 15.6326 25.4678L16.0742 25.0262C16.3453 24.7552 16.7844 24.7552 17.0555 25.0262C17.3265 25.2973 17.3265 25.7365 17.0555 26.0075L16.6139 26.4491C17.3796 27.0443 18.2975 27.4353 19.306 27.563V26.9392C19.306 26.5556 19.6164 26.2453 19.9999 26.2453C20.3834 26.2453 20.6938 26.5557 20.6938 26.9392V27.563C21.7023 27.4353 22.6203 27.0443 23.3859 26.4491L22.9444 26.0075C22.6733 25.7364 22.6733 25.2973 22.9444 25.0262C23.2155 24.7552 23.6546 24.7552 23.9256 25.0262L24.3672 25.4678C24.9624 24.7021 25.3534 23.7842 25.4812 22.7757H24.8573C24.4737 22.7757 24.1634 22.4653 24.1634 22.0818C24.1636 21.6982 24.474 21.3879 24.8575 21.3879ZM22.0818 22.7757H20C19.6164 22.7757 19.3061 22.4653 19.3061 22.0818V20C19.3061 19.6164 19.6165 19.3061 20 19.3061C20.3835 19.3061 20.6939 19.6165 20.6939 20V21.3879H22.0818C22.4654 21.3879 22.7757 21.6983 22.7757 22.0818C22.7757 22.4654 22.4654 22.7757 22.0818 22.7757ZM29.7151 13.4673L27.7526 11.5048C27.4815 11.2337 27.0423 11.2337 26.7713 11.5048L25.7028 12.5733C26.9066 13.298 27.9601 14.2416 28.8108 15.3528L29.7151 14.4485C29.9862 14.1774 29.9862 13.7384 29.7151 13.4673ZM11.1892 15.3528C12.04 14.2415 13.0934 13.298 14.2973 12.5733L13.2287 11.5048C12.9576 11.2337 12.5185 11.2337 12.2475 11.5048L10.285 13.4673C10.0139 13.7384 10.0139 14.1775 10.285 14.4485L11.1892 15.3528Z" fill="url(#paint1_linear)"/>
<defs>
<linearGradient id="paint0_linear" x1="20" y1="-0.000132451" x2="20" y2="40" gradientUnits="userSpaceOnUse">
<stop stop-color="#00E8A2"/>
<stop offset="1" stop-color="#7BFCDD"/>
</linearGradient>
<linearGradient id="paint1_linear" x1="20" y1="31.7969" x2="20" y2="8.20312" gradientUnits="userSpaceOnUse">
<stop stop-color="#C9FFF3"/>
<stop offset="0.9973" stop-color="#F8FFFD"/>
</linearGradient>
</defs>
</svg>
